<?xml version="1.0" encoding="UTF-8" standalone="no"?>
<svg
   xmlns:dc="http://purl.org/dc/elements/1.1/"
   xmlns:cc="http://creativecommons.org/ns#"
   xmlns:rdf="http://www.w3.org/1999/02/22-rdf-syntax-ns#"
   xmlns:svg="http://www.w3.org/2000/svg"
   xmlns="http://www.w3.org/2000/svg"
   xmlns:sodipodi="http://sodipodi.sourceforge.net/DTD/sodipodi-0.dtd"
   xmlns:inkscape="http://www.inkscape.org/namespaces/inkscape"
   width="113.53197mm"
   height="137.46405mm"
   viewBox="0 0 113.53198 137.46405"
   version="1.1"
   id="svg8"
   sodipodi:docname="light-bulb.svg"
   inkscape:version="1.0.1 (c497b03c, 2020-09-10)">
  <defs
     id="defs2" />
  <sodipodi:namedview
     id="base"
     pagecolor="#ffffff"
     bordercolor="#666666"
     borderopacity="1.0"
     inkscape:pageopacity="0.0"
     inkscape:pageshadow="2"
     inkscape:zoom="1.549839"
     inkscape:cx="-177.54269"
     inkscape:cy="306.46645"
     inkscape:document-units="mm"
     inkscape:current-layer="layer2"
     inkscape:document-rotation="0"
     showgrid="false"
     fit-margin-top="0"
     fit-margin-left="0"
     fit-margin-right="0"
     fit-margin-bottom="0"
     inkscape:window-width="3440"
     inkscape:window-height="1334"
     inkscape:window-x="0"
     inkscape:window-y="25"
     inkscape:window-maximized="1" />
  <metadata
     id="metadata5">
    <rdf:RDF>
      <cc:Work
         rdf:about="">
        <dc:format>image/svg+xml</dc:format>
        <dc:type
           rdf:resource="http://purl.org/dc/dcmitype/StillImage" />
        <dc:title></dc:title>
      </cc:Work>
    </rdf:RDF>
  </metadata>
  <g
     inkscape:label="Layer 1"
     inkscape:groupmode="layer"
     id="layer1"
     transform="translate(-46.732121,-27.696424)">
    <path
       id="path833-6"
       style="fill:#8f8f8f;fill-opacity:1;stroke:#6a6a6a;stroke-width:14.279;stroke-linecap:square;stroke-miterlimit:4;stroke-dasharray:none;stroke-opacity:1;paint-order:markers stroke fill"
       d="m 103.44051,50.869022 c -16.77889,9.9e-5 -30.38077,13.155138 -30.3806,29.382559 1e-4,6.692953 2.36288,13.185302 6.69739,18.402806 3.42015,5.099613 13.19492,8.559833 11.75006,24.879573 -0.29132,3.29057 2.645,5.30055 5.57741,6.23151 3.99287,1.25596 8.09197,0.29573 10.2764,-0.12837 1.41509,-0.23184 4.43505,-2.79183 5.09172,-5.94297 -0.10597,-16.20015 4.06348,-14.65204 10.57206,-20.98035 6.50858,-6.328317 10.79609,-13.801902 10.79615,-22.462164 1.7e-4,-16.227421 -13.6017,-29.382495 -30.38059,-29.382594 z"
       sodipodi:nodetypes="cccsccczccc" />
    <path
       sodipodi:type="star"
       style="fill:#8f8f8f;fill-opacity:1;stroke:#6a6a6a;stroke-width:17.4083;stroke-linecap:square;stroke-linejoin:round;stroke-miterlimit:4;stroke-dasharray:none;stroke-opacity:1;paint-order:markers stroke fill"
       id="path1053"
       sodipodi:sides="3"
       sodipodi:cx="82.670677"
       sodipodi:cy="148.99193"
       sodipodi:r1="11.609987"
       sodipodi:r2="5.8049936"
       sodipodi:arg1="1.5707963"
       sodipodi:arg2="2.6179939"
       inkscape:flatsided="true"
       inkscape:rounded="0"
       inkscape:randomized="0"
       d="m 82.670677,160.60192 -10.054544,-17.41499 20.109088,0 z"
       inkscape:transform-center-y="2.1241393"
       transform="matrix(0.91658125,0,0,0.73183166,27.057426,41.257565)" />
  </g>
  <g
     inkscape:groupmode="layer"
     id="layer2"
     inkscape:label="Layer 2"
     style="display:inline"
     transform="translate(-0.08265662,-0.25474766)">
    <rect
       style="fill:#fff600;fill-opacity:1;stroke:#ffc003;stroke-width:5.92619;stroke-linecap:square;stroke-miterlimit:4;stroke-dasharray:none;stroke-opacity:1;paint-order:markers stroke fill"
       id="rect843-7"
       width="8.5124331"
       height="4.4152308"
       x="102.13911"
       y="51.35442"
       rx="1.3850812" />
    <rect
       style="fill:#fff600;fill-opacity:1;stroke:#ffc003;stroke-width:6.20821;stroke-linecap:square;stroke-miterlimit:4;stroke-dasharray:none;stroke-opacity:1;paint-order:markers stroke fill"
       id="rect843-7-9"
       width="11.125443"
       height="3.7073886"
       x="72.877861"
       y="78.91124"
       rx="1.8102514"
       transform="matrix(0.83954292,-0.54329338,0.45791681,0.88899505,0,0)" />
    <rect
       style="fill:#fff600;fill-opacity:1;stroke:#ffc003;stroke-width:6.3705;stroke-linecap:square;stroke-miterlimit:4;stroke-dasharray:none;stroke-opacity:1;paint-order:markers stroke fill"
       id="rect843-7-9-2"
       width="11.655357"
       height="3.7262959"
       x="25.898739"
       y="71.611206"
       rx="1.896475"
       transform="matrix(0.51161005,-0.85921776,0.8725756,0.4884791,0,0)" />
    <rect
       style="fill:#fff600;fill-opacity:1;stroke:#ffc003;stroke-width:6.57643;stroke-linecap:square;stroke-miterlimit:4;stroke-dasharray:none;stroke-opacity:1;paint-order:markers stroke fill"
       id="rect843-7-9-2-2"
       width="11.830088"
       height="3.9124248"
       x="-29.513149"
       y="-23.352909"
       rx="1.924906"
       transform="matrix(-0.53744246,-0.84330042,-0.88611419,0.46346698,0,0)" />
    <rect
       style="fill:#fff600;fill-opacity:1;stroke:#ffc003;stroke-width:5.81557;stroke-linecap:square;stroke-miterlimit:4;stroke-dasharray:none;stroke-opacity:1;paint-order:markers stroke fill"
       id="rect843-7-9-1"
       width="10.597489"
       height="3.4153481"
       x="-31.699951"
       y="17.734694"
       rx="1.7243469"
       transform="matrix(-0.8555741,-0.51768036,-0.48252547,0.87588194,0,0)" />
    <rect
       style="fill:#fff600;fill-opacity:1;stroke:#ffc003;stroke-width:5.5195;stroke-linecap:square;stroke-miterlimit:4;stroke-dasharray:none;stroke-opacity:1;paint-order:markers stroke fill"
       id="rect843-7-4"
       width="7.6879325"
       height="4.240778"
       x="2.8424065"
       y="52.90559"
       rx="1.2509246" />
    <rect
       style="fill:#fff600;fill-opacity:1;stroke:#ffc003;stroke-width:5.53453;stroke-linecap:square;stroke-miterlimit:4;stroke-dasharray:none;stroke-opacity:1;paint-order:markers stroke fill"
       id="rect843-7-9-1-2"
       width="9.8545656"
       height="3.3264241"
       x="18.476288"
       y="-78.594704"
       rx="1.6034635"
       transform="matrix(-0.83299279,0.55328384,-0.44853429,-0.89376562,0,0)" />
    <rect
       style="fill:#fff600;fill-opacity:1;stroke:#ffc003;stroke-width:5.74442;stroke-linecap:square;stroke-miterlimit:4;stroke-dasharray:none;stroke-opacity:1;paint-order:markers stroke fill"
       id="rect843-7-9-7"
       width="10.125708"
       height="3.4875603"
       x="121.00244"
       y="-11.474105"
       rx="1.6475815"
       transform="matrix(0.82227554,0.56908956,0.43392585,-0.90094859,0,0)" />
    <path
       sodipodi:type="star"
       style="fill:#fff600;fill-opacity:1;stroke:#ffc003;stroke-width:17.4083;stroke-linecap:square;stroke-linejoin:round;stroke-miterlimit:4;stroke-dasharray:none;stroke-opacity:1;paint-order:markers stroke fill"
       id="path1053-9"
       sodipodi:sides="3"
       sodipodi:cx="82.670677"
       sodipodi:cy="148.99193"
       sodipodi:r1="11.609987"
       sodipodi:r2="5.8049936"
       sodipodi:arg1="1.5707963"
       sodipodi:arg2="2.6179939"
       inkscape:flatsided="true"
       inkscape:rounded="0"
       inkscape:randomized="0"
       d="m 82.670677,160.60192 -10.054544,-17.41499 20.109088,0 z"
       inkscape:transform-center-y="2.1241393"
       transform="matrix(0.91658125,0,0,0.73183165,-19.592038,13.81589)" />
    <path
       id="path833"
       style="fill:#fff600;fill-opacity:1;stroke:#ffc003;stroke-width:14.279;stroke-linecap:square;stroke-miterlimit:4;stroke-dasharray:none;stroke-opacity:1;paint-order:markers stroke fill"
       d="m 56.791046,23.427346 c -16.7789,9.9e-5 -30.38077,13.155138 -30.3806,29.382559 10e-5,6.692953 2.36288,13.185302 6.69739,18.402806 3.42015,5.099611 13.19491,8.559831 11.75006,24.879572 -0.29132,3.29057 2.64499,5.300547 5.57741,6.231507 3.99287,1.25596 8.09197,0.29573 10.2764,-0.12837 1.41509,-0.23184 4.43505,-2.791826 5.09172,-5.942966 -0.10597,-16.200152 4.06348,-14.65204 10.57206,-20.980352 6.50858,-6.328315 10.79609,-13.8019 10.79615,-22.462162 1.7e-4,-16.227421 -13.6017,-29.382495 -30.38059,-29.382594 z"
       sodipodi:nodetypes="cccsccczccc" />
  </g>
</svg>
